<svg width="400" height="400" xmlns="http://www.w3.org/2000/svg" fill="none"><path stroke="null" d="M295.812 77.178c-62.723-4.507-132.59-4.507-195.309 0-13.132.943-23.081 10.994-24.07 23.285-3.165 39.411-3.588 98.454-.686 137.824.962 13.004 12.378 24.168 27.83 24.168h48.417v59.733l-48.321-.032c-44.333 0-84.122-32.861-87.558-79.471-3.128-42.434-2.7-104.55.713-147.01 3.418-42.558 37.636-75.143 79.388-78.142 65.575-4.71 138.299-4.71 203.883 0 41.748 2.999 75.966 35.584 79.383 78.141 3.413 42.461 3.266 104.577.138 147.01-3.44 46.61-43.137 79.605-87.47 79.605l-47.82-.037-92.336 59.733v-59.797l92.337-59.733h47.828c15.447 0 26.863-11.164 27.825-24.168 2.898-39.37 3.059-98.413-.106-137.824-.989-12.29-10.934-22.342-24.066-23.285z" fill="#FE5000"/></svg>