<svg width="400" height="400" xmlns="http://www.w3.org/2000/svg" aria-hidden="true" data-prefix="fab" data-icon="whatsapp" class="svg-inline--fa fa-whatsapp fa-w-14"><path stroke="null" fill="#37af48" d="M325.979 72.44C292.871 39.254 248.779 21 201.921 21c-96.718 0-175.42 78.702-175.42 175.42 0 30.896 8.06 61.08 23.39 87.71L25 375l93.004-24.417c25.602 13.987 54.443 21.335 83.838 21.335h.079c96.639 0 177.079-78.701 177.079-175.42 0-46.857-19.912-90.87-53.021-124.057zM201.921 342.367c-26.234 0-51.915-7.033-74.277-20.308l-5.294-3.16-55.154 14.46 14.697-53.812-3.477-5.53c-14.618-23.232-22.283-50.02-22.283-77.596 0-80.362 65.427-145.788 145.867-145.788 38.956 0 75.541 15.171 103.04 42.748 27.497 27.578 44.407 64.163 44.328 103.119 0 80.44-67.086 145.867-147.447 145.867zm79.966-109.203c-4.346-2.213-25.918-12.8-29.948-14.223-4.03-1.502-6.953-2.213-9.877 2.212-2.924 4.425-11.3 14.223-13.907 17.226-2.529 2.924-5.136 3.319-9.482 1.106-25.76-12.88-42.67-22.994-59.659-52.151-4.504-7.744 4.504-7.191 12.88-23.943 1.423-2.923.711-5.452-.395-7.665-1.106-2.212-9.877-23.784-13.512-32.555-3.556-8.534-7.19-7.349-9.877-7.507-2.529-.158-5.452-.158-8.376-.158-2.924 0-7.665 1.107-11.695 5.453-4.03 4.425-15.33 15.013-15.33 36.585 0 21.572 15.725 42.432 17.859 45.356 2.212 2.924 30.896 47.174 74.909 66.217 27.814 12.01 38.719 13.038 52.626 10.984 8.455-1.265 25.918-10.589 29.552-20.861 3.635-10.272 3.635-19.043 2.529-20.86-1.027-1.976-3.95-3.083-8.297-5.216z"/></svg>